<svg xmlns="http://www.w3.org/2000/svg" viewBox="0 0 24 24" aria-hidden="true">
  <path fill="none" stroke="currentColor" stroke-width="1.9" stroke-linecap="round" stroke-linejoin="round" d="M12 8.3a3.7 3.7 0 1 0 0 7.4 3.7 3.7 0 0 0 0-7.4Z"/>
  <path fill="none" stroke="currentColor" stroke-width="1.9" stroke-linecap="round" stroke-linejoin="round" d="M19.1 13.4c.1-.5.1-.9.1-1.4s0-.9-.1-1.4l2-1.5-2-3.5-2.5 1a8 8 0 0 0-2.3-1.3L14 2.7h-4l-.4 2.6a8 8 0 0 0-2.3 1.3l-2.5-1-2 3.5 2 1.5c-.1.5-.1.9-.1 1.4s0 .9.1 1.4l-2 1.5 2 3.5 2.5-1a8 8 0 0 0 2.3 1.3l.4 2.6h4l.4-2.6a8 8 0 0 0 2.3-1.3l2.5 1 2-3.5-2.1-1.5Z"/>
</svg>
