<svg xmlns="http://www.w3.org/2000/svg" viewBox="0 0 24 24" aria-hidden="true">
  <path fill="none" stroke="currentColor" stroke-width="1.9" stroke-linecap="round" stroke-linejoin="round" d="M6.5 7.5h11A2.5 2.5 0 0 1 20 10v8.5A2.5 2.5 0 0 1 17.5 21h-11A2.5 2.5 0 0 1 4 18.5V10a2.5 2.5 0 0 1 2.5-2.5Z"/>
  <path fill="none" stroke="currentColor" stroke-width="1.9" stroke-linecap="round" stroke-linejoin="round" d="M9 7.5V5.8A2.8 2.8 0 0 1 11.8 3h.4A2.8 2.8 0 0 1 15 5.8v1.7"/>
  <path fill="none" stroke="currentColor" stroke-width="1.9" stroke-linecap="round" stroke-linejoin="round" d="M4 12h16M8 12v2.2M16 12v2.2"/>
</svg>
